<?xml version="1.0" encoding="UTF-8"?>
<svg xmlns="http://www.w3.org/2000/svg" xmlns:xlink="http://www.w3.org/1999/xlink" viewBox="0 0 256 256">
  <defs>
    <linearGradient id="bx" x1="108.68" y1="112.86" x2="176.36" y2="112.86" gradientUnits="userSpaceOnUse">
      <stop offset=".43" stop-color="#bfccd9"/>
      <stop offset=".52" stop-color="#e6edf7"/>
    </linearGradient>
    <linearGradient id="by" x1="12.87" y1="188.68" x2="80.55" y2="188.68" xlink:href="#bx"/>
    <linearGradient id="bz" x1="60.68" y1="151" x2="128.36" y2="151" xlink:href="#bx"/>
    <linearGradient id="ca" x1="3480.6" y1="155.29" x2="3491.95" y2="155.29" gradientTransform="translate(3558.78) rotate(-180) scale(1 -1)" gradientUnits="userSpaceOnUse">
      <stop offset=".2" stop-color="#e6edf7"/>
      <stop offset=".33" stop-color="#bfccd9"/>
    </linearGradient>
    <linearGradient id="cb" x1="3483.23" y1="160.35" x2="3494.58" y2="160.35" xlink:href="#ca"/>
    <linearGradient id="cc" x1="3486.54" y1="165.12" x2="3497.89" y2="165.12" xlink:href="#ca"/>
    <linearGradient id="cd" x1="3431.51" y1="118.07" x2="3442.86" y2="118.07" xlink:href="#ca"/>
    <linearGradient id="ce" x1="3434.14" y1="123.14" x2="3445.48" y2="123.14" xlink:href="#ca"/>
    <linearGradient id="cf" x1="3437.44" y1="127.91" x2="3448.79" y2="127.91" xlink:href="#ca"/>
    <linearGradient id="cg" x1="155.22" y1="73.86" x2="222.9" y2="73.86" xlink:href="#bx"/>
    <linearGradient id="ch" x1="3384.97" y1="79.07" x2="3396.31" y2="79.07" xlink:href="#ca"/>
    <linearGradient id="ci" x1="3387.6" y1="84.13" x2="3398.94" y2="84.13" xlink:href="#ca"/>
    <linearGradient id="cj" x1="3390.9" y1="88.91" x2="3402.25" y2="88.91" xlink:href="#ca"/>
  </defs>
  <g isolation="isolate">
    <g id="bt" data-name="Flere veje">
      <g id="bu" data-name="Kategori">
        <g>
          <g id="bv" data-name="platform">
            <g class="group-hover:bg-red-500" id="bw" data-name="shadows">
              <path d="m174.98,128.11c1.84,1.06,1.85,2.79.02,3.85l-29.04,16.88c-1.83,1.06-4.81,1.06-6.65,0l-29.23-16.88c-1.84-1.06-1.85-2.79-.02-3.85l29.04-16.88c1.83-1.06,4.8-1.06,6.65,0l29.23,16.88Z" mix-blend-mode="multiply" opacity=".1" stroke-width="0"/>
              <path d="m79.16,183.56c1.84,1.06,1.85,2.79.02,3.85l-29.04,16.88c-1.83,1.06-4.81,1.06-6.65,0l-29.23-16.88c-1.84-1.06-1.85-2.79-.02-3.85l29.04-16.88c1.83-1.06,4.8-1.06,6.65,0l29.23,16.88Z" mix-blend-mode="multiply" opacity=".1" stroke-width="0"/>
              <path d="m126.97,156.11c1.84,1.06,1.85,2.79.02,3.85l-29.04,16.88c-1.83,1.06-4.81,1.06-6.65,0l-29.23-16.88c-1.84-1.06-1.85-2.79-.02-3.85l29.04-16.88c1.83-1.06,4.8-1.06,6.65,0l29.23,16.88Z" mix-blend-mode="multiply" opacity=".1" stroke-width="0"/>
              <path d="m221.52,101.05c1.84,1.06,1.85,2.79.02,3.85l-29.04,16.88c-1.83,1.06-4.81,1.06-6.65,0l-29.23-16.88c-1.84-1.06-1.85-2.79-.02-3.85l29.04-16.88c1.83-1.06,4.8-1.06,6.65,0l29.23,16.88Z" mix-blend-mode="multiply" opacity=".1" stroke-width="0"/>
            </g>
            <g>
              <path d="m175,103.59l-29.04,16.88c-1.83,1.06-4.81,1.06-6.65,0l-29.23-16.88c-.93-.53-1.39-1.24-1.39-1.94v2.81c0,.7.45,1.4,1.38,1.94l29.23,16.88c1.84,1.06,4.82,1.06,6.65,0l29.04-16.88c.91-.53,1.36-1.22,1.37-1.91v-2.81c0,.69-.45,1.38-1.36,1.91Z" fill="url(#bx)" stroke-width="0"/>
              <path d="m174.98,99.74c1.84,1.06,1.85,2.79.02,3.85l-29.04,16.88c-1.83,1.06-4.81,1.06-6.65,0l-29.23-16.88c-1.84-1.06-1.85-2.79-.02-3.85l29.04-16.88c1.83-1.06,4.8-1.06,6.65,0l29.23,16.88Z" fill="#f7f9fc" stroke-width="0"/>
            </g>
            <g>
              <path d="m79.18,179.41l-29.04,16.88c-1.83,1.06-4.81,1.06-6.65,0l-29.23-16.88c-.93-.53-1.39-1.24-1.39-1.94v2.81c0,.7.45,1.4,1.38,1.94l29.23,16.88c1.84,1.06,4.82,1.06,6.65,0l29.04-16.88c.91-.53,1.36-1.22,1.37-1.91v-2.81c0,.69-.45,1.38-1.36,1.91Z" fill="url(#by)" stroke-width="0"/>
              <path d="m79.16,175.56c1.84,1.06,1.85,2.79.02,3.85l-29.04,16.88c-1.83,1.06-4.81,1.06-6.65,0l-29.23-16.88c-1.84-1.06-1.85-2.79-.02-3.85l29.04-16.88c1.83-1.06,4.8-1.06,6.65,0l29.23,16.88Z" fill="#f7f9fc" stroke-width="0"/>
            </g>
            <g>
              <path d="m127,141.73l-29.04,16.88c-1.83,1.06-4.81,1.06-6.65,0l-29.23-16.88c-.93-.53-1.39-1.24-1.39-1.94v2.81c0,.7.45,1.4,1.38,1.94l29.23,16.88c1.84,1.06,4.82,1.06,6.65,0l29.04-16.88c.91-.53,1.36-1.22,1.37-1.91v-2.81c0,.69-.45,1.38-1.36,1.91Z" fill="url(#bz)" stroke-width="0"/>
              <path d="m126.97,137.88c1.84,1.06,1.85,2.79.02,3.85l-29.04,16.88c-1.83,1.06-4.81,1.06-6.65,0l-29.23-16.88c-1.84-1.06-1.85-2.79-.02-3.85l29.04-16.88c1.83-1.06,4.8-1.06,6.65,0l29.23,16.88Z" fill="#f7f9fc" stroke-width="0"/>
            </g>
            <g>
              <g>
                <path d="m67.18,152.7l7.4,4.3c.47.27,1.22.27,1.69,0l1.55-.88c.24-.14.35-.32.35-.49v1.16c0,.18-.12.36-.35.49l-1.55.88c-.47.27-1.23.27-1.69,0l-7.4-4.3c-.23-.13-.35-.31-.35-.49v-1.16c0,.18.11.35.35.49Z" fill="url(#ca)" stroke-width="0"/>
                <path d="m67.19,151.72c-.47.27-.47.71,0,.98l7.4,4.3c.47.27,1.22.27,1.69,0l1.55-.88c.47-.27.47-.71,0-.98l-7.4-4.3c-.47-.27-1.22-.27-1.69,0l-1.55.88Z" fill="#f7f9fc" stroke-width="0"/>
              </g>
              <g>
                <path d="m64.55,157.76l7.4,4.3c.47.27,1.22.27,1.69,0l1.55-.88c.24-.14.35-.32.35-.49v1.16c0,.18-.12.36-.35.49l-1.55.88c-.47.27-1.23.27-1.69,0l-7.4-4.3c-.23-.13-.35-.31-.35-.49v-1.16c0,.18.11.35.35.49Z" fill="url(#cb)" stroke-width="0"/>
                <path d="m64.56,156.78c-.47.27-.47.71,0,.98l7.4,4.3c.47.27,1.22.27,1.69,0l1.55-.88c.47-.27.47-.71,0-.98l-7.4-4.3c-.47-.27-1.22-.27-1.69,0l-1.55.88Z" fill="#f7f9fc" stroke-width="0"/>
              </g>
              <g>
                <path d="m61.24,162.53l7.4,4.3c.47.27,1.22.27,1.69,0l1.55-.88c.24-.14.35-.32.35-.49v1.16c0,.18-.12.36-.35.49l-1.55.88c-.47.27-1.23.27-1.69,0l-7.4-4.3c-.23-.13-.35-.31-.35-.49v-1.16c0,.18.11.35.35.49Z" fill="url(#cc)" stroke-width="0"/>
                <path d="m61.25,161.55c-.47.27-.47.71,0,.98l7.4,4.3c.47.27,1.22.27,1.69,0l1.55-.88c.47-.27.47-.71,0-.98l-7.4-4.3c-.47-.27-1.22-.27-1.69,0l-1.55.88Z" fill="#f7f9fc" stroke-width="0"/>
              </g>
            </g>
            <g>
              <g>
                <path d="m116.27,115.49l7.4,4.3c.47.27,1.22.27,1.69,0l1.55-.88c.24-.14.35-.32.35-.49v1.16c0,.18-.12.36-.35.49l-1.55.88c-.47.27-1.23.27-1.69,0l-7.4-4.3c-.23-.13-.35-.31-.35-.49v-1.16c0,.18.11.35.35.49Z" fill="url(#cd)" stroke-width="0"/>
                <path d="m116.28,114.5c-.47.27-.47.71,0,.98l7.4,4.3c.47.27,1.22.27,1.69,0l1.55-.88c.47-.27.47-.71,0-.98l-7.4-4.3c-.47-.27-1.22-.27-1.69,0l-1.55.88Z" fill="#f7f9fc" stroke-width="0"/>
              </g>
              <g>
                <path d="m113.65,120.55l7.4,4.3c.47.27,1.22.27,1.69,0l1.55-.88c.24-.14.35-.32.35-.49v1.16c0,.18-.12.36-.35.49l-1.55.88c-.47.27-1.23.27-1.69,0l-7.4-4.3c-.23-.13-.35-.31-.35-.49v-1.16c0,.18.11.35.35.49Z" fill="url(#ce)" stroke-width="0"/>
                <path d="m113.65,119.57c-.47.27-.47.71,0,.98l7.4,4.3c.47.27,1.22.27,1.69,0l1.55-.88c.47-.27.47-.71,0-.98l-7.4-4.3c-.47-.27-1.22-.27-1.69,0l-1.55.88Z" fill="#f7f9fc" stroke-width="0"/>
              </g>
              <g>
                <path d="m110.34,125.32l7.4,4.3c.47.27,1.22.27,1.69,0l1.55-.88c.24-.14.35-.32.35-.49v1.16c0,.18-.12.36-.35.49l-1.55.88c-.47.27-1.23.27-1.69,0l-7.4-4.3c-.23-.13-.35-.31-.35-.49v-1.16c0,.18.11.35.35.49Z" fill="url(#cf)" stroke-width="0"/>
                <path d="m110.34,124.34c-.47.27-.47.71,0,.98l7.4,4.3c.47.27,1.22.27,1.69,0l1.55-.88c.47-.27.47-.71,0-.98l-7.4-4.3c-.47-.27-1.22-.27-1.69,0l-1.55.88Z" fill="#f7f9fc" stroke-width="0"/>
              </g>
            </g>
            <g>
              <path d="m221.54,64.58l-29.04,16.88c-1.83,1.06-4.81,1.06-6.65,0l-29.23-16.88c-.93-.53-1.39-1.24-1.39-1.94v2.81c0,.7.45,1.4,1.38,1.94l29.23,16.88c1.84,1.06,4.82,1.06,6.65,0l29.04-16.88c.91-.53,1.36-1.22,1.37-1.91v-2.81c0,.69-.45,1.38-1.36,1.91Z" fill="url(#cg)" stroke-width="0"/>
              <path d="m221.52,60.74c1.84,1.06,1.85,2.79.02,3.85l-29.04,16.88c-1.83,1.06-4.81,1.06-6.65,0l-29.23-16.88c-1.84-1.06-1.85-2.79-.02-3.85l29.04-16.88c1.83-1.06,4.8-1.06,6.65,0l29.23,16.88Z" fill="#f7f9fc" stroke-width="0"/>
            </g>
            <g>
              <g>
                <path d="m162.82,76.48l7.4,4.3c.47.27,1.22.27,1.69,0l1.55-.88c.24-.14.35-.32.35-.49v1.16c0,.18-.12.36-.35.49l-1.55.88c-.47.27-1.23.27-1.69,0l-7.4-4.3c-.23-.13-.35-.31-.35-.49v-1.16c0,.18.11.35.35.49Z" fill="url(#ch)" stroke-width="0"/>
                <path d="m162.82,75.5c-.47.27-.47.71,0,.98l7.4,4.3c.47.27,1.22.27,1.69,0l1.55-.88c.47-.27.47-.71,0-.98l-7.4-4.3c-.47-.27-1.22-.27-1.69,0l-1.55.88Z" fill="#f7f9fc" stroke-width="0"/>
              </g>
              <g>
                <path d="m160.19,81.55l7.4,4.3c.47.27,1.22.27,1.69,0l1.55-.88c.24-.14.35-.32.35-.49v1.16c0,.18-.12.36-.35.49l-1.55.88c-.47.27-1.23.27-1.69,0l-7.4-4.3c-.23-.13-.35-.31-.35-.49v-1.16c0,.18.11.35.35.49Z" fill="url(#ci)" stroke-width="0"/>
                <path d="m160.19,80.56c-.47.27-.47.71,0,.98l7.4,4.3c.47.27,1.22.27,1.69,0l1.55-.88c.47-.27.47-.71,0-.98l-7.4-4.3c-.47-.27-1.22-.27-1.69,0l-1.55.88Z" fill="#f7f9fc" stroke-width="0"/>
              </g>
              <g>
                <path d="m156.88,86.32l7.4,4.3c.47.27,1.22.27,1.69,0l1.55-.88c.24-.14.35-.32.35-.49v1.16c0,.18-.12.36-.35.49l-1.55.88c-.47.27-1.23.27-1.69,0l-7.4-4.3c-.23-.13-.35-.31-.35-.49v-1.16c0,.18.11.35.35.49Z" fill="url(#cj)" stroke-width="0"/>
                <path d="m156.88,85.34c-.47.27-.47.71,0,.98l7.4,4.3c.47.27,1.22.27,1.69,0l1.55-.88c.47-.27.47-.71,0-.98l-7.4-4.3c-.47-.27-1.22-.27-1.69,0l-1.55.88Z" fill="#f7f9fc" stroke-width="0"/>
              </g>
            </g>
          </g>
          <g id="ck" data-name="book 1">
            <g>
              <path d="m179.5,48.2l-20.52,11.9,28.71,16.48,5.11.05c.11-.06-13.31-28.43-13.31-28.43Z" fill="#bfccd9" mix-blend-mode="multiply" opacity=".5" stroke-width="0"/>
              <path d="m215.95,62.78l-52.3-3.48,29.63,17.11,22.56-13.02c.09-.05.14-.14.14-.24l-.03-.37Z" fill="#1da9ab" stroke-width="0"/>
              <path d="m215.87,62.65l-29.39-16.97-22.73,13.13,29.7,17.07,22.42-12.95c.11-.06.11-.22,0-.28Z" fill="#50e0c4" stroke-width="0"/>
              <polygon points="215.16 62.82 215.16 56.84 193.3 69.48 193.3 75.46 215.16 62.82" fill="#e6edf7" stroke-width="0"/>
              <polygon points="193.4 70.32 215.16 57.73 215.16 56.84 193.3 69.48 193.4 70.32" fill="#e6edf7" mix-blend-mode="multiply" stroke-width="0"/>
              <path d="m193.96,75.08s-.09-.57-.1-2.71c0-2.44.1-3.27.1-3.27l-.62.35v5.98s.14.08.45-.08c.21-.11.17-.28.17-.28Z" fill="#3d4663" stroke-width="0"/>
              <path d="m163.84,52.52l29.63,17.11,21.97-12.7c.1-.06.16-.16.16-.27v-.5l-51.76-3.64Z" fill="#1da9ab" stroke-width="0"/>
              <path d="m215.52,56.02l-29.19-16.85c-.13-.07-.29-.07-.42,0l-22.29,12.87,29.63,17.11,22.27-12.85c.1-.06.1-.21,0-.27Z" fill="#50e0c4" stroke-width="0"/>
              <path d="m193.66,68.91l-29.63-17.11-.41.24,29.31,17.17.42.15.15-.07c.11-.05.18-.17.17-.29v-.09Z" fill="#117f80" stroke-width="0"/>
              <path d="m192.39,70.15l1.07-.53v-.18c0-.21-.11-.4-.29-.5l-29.24-16.87c-.28-.19-.62-.13-.91.04-.05.03-.15.09-.2.13-.15.11-.3.27-.34.49-.02.08-.02.24-.02.24l29.92,17.19Z" fill="#50e0c4" stroke-width="0"/>
              <path d="m192.81,76.62l-.42-6.53c0-.22-.12-.43-.31-.54l-29.16-16.83c-.2-.11-.45.03-.45.26v6.28c0,.26.14.5.36.63l29.09,16.79c.21.12,1,.15.88-.07Z" fill="#117f80" stroke-width="0"/>
              <path d="m193.1,69.33l-.27.16c-.27.16-.44.44-.44.76v6.24c0,.21.29.33.47.23l.39-.23c.12-.07.22-.24.22-.38v-6.56c0-.19-.2-.31-.37-.21Z" fill="#1da9ab" stroke-width="0"/>
              <polygon points="215.16 58.81 211.31 61.12 215.16 59.15 215.16 58.81" fill="#e6edf7" mix-blend-mode="multiply" stroke-width="0"/>
              <polygon points="215.16 61.04 208.72 64.7 215.16 61.45 215.16 61.04" fill="#e6edf7" mix-blend-mode="multiply" stroke-width="0"/>
            </g>
            <g>
              <path d="m167.66,56.81v4.91s-.51-.29-.51-.29v-3.29c0-.12.02-.27.02-.43,0-.15.01-.32.03-.5-.04.09-.06.17-.08.24-.02.07-.04.12-.06.16l-1.47,2.93-.24-.14-1.45-4.58c-.02-.07-.04-.15-.06-.24-.02-.1-.04-.21-.06-.34,0,.1,0,.23,0,.39,0,.17,0,.36,0,.58v3.29s-.49-.28-.49-.28v-4.91s.67.38.67.38l1.3,4.18c.05.15.1.3.13.41s.06.22.07.29h.02c.04-.11.08-.2.12-.27.03-.08.06-.15.09-.2l1.34-2.64.63.36Z" fill="#50e0c4" stroke-width="0"/>
              <path d="m169.98,58.15l1.63,5.86-.55-.32-.43-1.56-1.85-1.07-.41,1.08-.56-.32,1.65-3.96.52.3Zm-1.03,2.48l1.52.88-.69-2.55-.03-.15c0-.06-.02-.13-.03-.21h-.01s-.03.16-.03.16l-.03.12-.69,1.76" fill="#50e0c4" stroke-width="0"/>
              <polygon points="173.87 60.4 173.87 60.92 172.64 60.21 172.63 64.6 172.13 64.31 172.14 59.93 170.91 59.21 170.91 58.69 173.87 60.4" fill="#50e0c4" stroke-width="0"/>
              <polygon points="176.26 61.78 176.25 62.3 174.59 61.34 174.58 62.97 176.13 63.87 176.13 64.38 174.58 63.49 174.58 65.2 176.34 66.22 176.34 66.74 174.08 65.44 174.09 60.53 176.26 61.78" fill="#50e0c4" stroke-width="0"/>
              <path d="m181.07,64.56v4.91s-.51-.29-.51-.29v-3.29c0-.12.02-.27.02-.43,0-.15.01-.32.03-.5-.04.09-.06.17-.08.24-.02.07-.04.12-.06.16l-1.47,2.93-.24-.14-1.45-4.58c-.02-.07-.04-.15-.06-.24-.02-.1-.04-.21-.06-.34,0,.1,0,.23,0,.39,0,.17,0,.36,0,.58v3.29s-.49-.28-.49-.28v-4.91s.68.38.68.38l1.3,4.18c.05.15.1.3.13.41s.06.22.07.29h.02c.04-.11.08-.2.12-.27.03-.08.06-.15.09-.2l1.34-2.64.63.36Z" fill="#50e0c4" stroke-width="0"/>
              <path d="m183.39,65.9l1.63,5.86-.55-.32-.43-1.56-1.85-1.07-.41,1.08-.56-.32,1.65-3.96.52.3Zm-1.03,2.48l1.51.87-.68-2.55-.03-.15c0-.06-.02-.13-.03-.21h-.01s-.03.16-.03.16l-.04.12-.68,1.76" fill="#50e0c4" stroke-width="0"/>
              <polygon points="187.29 68.15 187.29 68.67 186.05 67.96 186.04 72.34 185.54 72.06 185.56 67.67 184.32 66.96 184.33 66.44 187.29 68.15" fill="#50e0c4" stroke-width="0"/>
              <polygon points="188 68.56 187.99 73.47 187.49 73.18 187.51 68.27 188 68.56" fill="#50e0c4" stroke-width="0"/>
              <polygon points="191.51 70.59 189.68 71.89 191.63 75.57 190.93 75.17 189.29 71.97 189.22 71.82 189.18 71.74 189.16 71.73 189.16 74.14 188.66 73.86 188.67 68.95 189.17 69.24 189.17 71.55 189.18 71.55 189.22 71.5 189.29 71.45 190.89 70.23 191.51 70.59" fill="#50e0c4" stroke-width="0"/>
            </g>
            <path d="m195.7,52.6l1.58-.91,2.83,1.63-1.58.91,3.31,1.91-3.65,2.1-3.31-1.91-6.09,3.52-2.47-1.18-3.81-9.48h-.02s3.65-2.12,3.65-2.12l9.57,5.52Zm-6.69,3.86l3.05-1.76-4.83-2.79-.1.03.17.42,1.71,4.11Z" fill="#1da9ab" stroke-width="0"/>
          </g>
          <g id="cl" data-name="book 1">
            <g>
              <path d="m133.29,87.77l-20.52,11.9,28.71,16.48,5.11.05c.11-.06-13.31-28.43-13.31-28.43Z" fill="#bfccd9" mix-blend-mode="multiply" opacity=".5" stroke-width="0"/>
              <path d="m169.74,102.36l-52.3-3.48,29.63,17.11,22.56-13.02c.09-.05.14-.14.14-.24l-.03-.37Z" fill="#b848b5" stroke-width="0"/>
              <path d="m169.66,102.22l-29.39-16.97-22.73,13.13,29.7,17.07,22.42-12.95c.11-.06.11-.22,0-.28Z" fill="#f59eff" stroke-width="0"/>
              <polygon points="168.94 102.39 168.94 96.41 147.09 109.06 147.09 115.04 168.94 102.39" fill="#e6edf7" stroke-width="0"/>
              <polygon points="147.19 109.89 168.94 97.3 168.94 96.41 147.09 109.06 147.19 109.89" fill="#e6edf7" mix-blend-mode="multiply" stroke-width="0"/>
              <path d="m147.75,114.66s-.09-.57-.1-2.71c0-2.44.1-3.27.1-3.27l-.62.35v5.98s.14.08.45-.08c.21-.11.17-.28.17-.28Z" fill="#3d4663" stroke-width="0"/>
              <path d="m117.62,92.09l29.63,17.11,21.97-12.7c.1-.06.16-.16.16-.27v-.5l-51.76-3.64Z" fill="#b848b5" stroke-width="0"/>
              <path d="m169.31,95.6l-29.19-16.85c-.13-.07-.29-.07-.42,0l-22.29,12.87,29.63,17.11,22.27-12.85c.1-.06.1-.21,0-.27Z" fill="#f59eff" stroke-width="0"/>
              <path d="m147.45,108.48l-29.63-17.11-.41.24,29.31,17.17.42.15.15-.07c.11-.05.18-.17.17-.29v-.09Z" fill="#9e269c" stroke-width="0"/>
              <path d="m146.18,109.73l1.07-.53v-.18c0-.21-.11-.4-.29-.5l-29.24-16.87c-.28-.19-.62-.13-.91.04-.05.03-.15.09-.2.13-.15.11-.3.27-.34.49-.02.08-.02.24-.02.24l29.92,17.19Z" fill="#f59eff" stroke-width="0"/>
              <path d="m146.59,116.2l-.42-6.53c0-.22-.12-.43-.31-.54l-29.16-16.83c-.2-.11-.45.03-.45.26v6.28c0,.26.14.5.36.63l29.09,16.79c.21.12,1,.15.88-.07Z" fill="#9e269c" stroke-width="0"/>
              <path d="m146.89,108.9l-.27.16c-.27.16-.44.44-.44.76v6.24c0,.21.29.33.47.23l.39-.23c.12-.07.22-.24.22-.38v-6.56c0-.19-.2-.31-.37-.21Z" fill="#b848b5" stroke-width="0"/>
              <polygon points="168.94 98.39 165.09 100.7 168.94 98.72 168.94 98.39" fill="#e6edf7" mix-blend-mode="multiply" stroke-width="0"/>
              <polygon points="168.94 100.61 162.5 104.28 168.94 101.03 168.94 100.61" fill="#e6edf7" mix-blend-mode="multiply" stroke-width="0"/>
            </g>
            <path d="m140.25,93.92l1.71-.99c1.32-.76,1.32-1.61.05-2.34-1-.57-2.41-.63-3.62.07-.96.55-1.2,1.38-.34,1.88l-3.54,2.04-.08-.02c-2.6-1.41-1.94-3.74,1.02-5.45,3.42-1.97,7.23-2.32,10.11-.66,1.43.82,1.75,2.1.92,3.36,2.33-.62,4.59-.46,6.36.55,2.89,1.67,2.19,4.08-1.25,6.06-2.97,1.72-7.13,2.29-9.99.55l-.06-.05,3.56-2.06c1.01.58,2.69.51,3.81-.14,1.28-.74,1.3-1.68.2-2.31-1.55-.89-3.02-.79-4.48.06l-1.71.99-2.67-1.56Z" fill="#c25bbf" stroke-width="0"/>
          </g>
          <g id="cm" data-name="book 1">
            <g>
              <path d="m84.89,125.85l-20.52,11.9,28.71,16.48,5.11.05c.11-.06-13.31-28.43-13.31-28.43Z" fill="#bfccd9" mix-blend-mode="multiply" opacity=".5" stroke-width="0"/>
              <path d="m121.34,140.43l-52.3-3.48,29.63,17.11,22.56-13.02c.09-.05.14-.14.14-.24l-.03-.37Z" fill="#fbb23f" stroke-width="0"/>
              <path d="m121.26,140.3l-29.39-16.97-22.73,13.13,29.7,17.07,22.42-12.95c.11-.06.11-.22,0-.28Z" fill="#fbd95f" stroke-width="0"/>
              <polygon points="120.54 140.47 120.54 134.49 98.69 147.13 98.69 153.11 120.54 140.47" fill="#e6edf7" stroke-width="0"/>
              <polygon points="98.79 147.97 120.54 135.38 120.54 134.49 98.69 147.13 98.79 147.97" fill="#e6edf7" mix-blend-mode="multiply" stroke-width="0"/>
              <path d="m99.35,152.74s-.09-.57-.1-2.71c0-2.44.1-3.27.1-3.27l-.62.35v5.98s.14.08.45-.08c.21-.11.17-.28.17-.28Z" fill="#3d4663" stroke-width="0"/>
              <path d="m69.23,130.17l29.63,17.11,21.97-12.7c.1-.06.16-.16.16-.27v-.5l-51.76-3.64Z" fill="#fbb23f" stroke-width="0"/>
              <path d="m120.91,133.67l-29.19-16.85c-.13-.07-.29-.07-.42,0l-22.29,12.87,29.63,17.11,22.27-12.85c.1-.06.1-.21,0-.27Z" fill="#fbd95f" stroke-width="0"/>
              <path d="m99.05,146.56l-29.63-17.11-.41.24,29.31,17.17.42.15.15-.07c.11-.05.18-.17.17-.29v-.09Z" fill="#f2982a" stroke-width="0"/>
              <path d="m97.78,147.8l1.07-.53v-.18c0-.21-.11-.4-.29-.5l-29.24-16.87c-.28-.19-.62-.13-.91.04-.05.03-.15.09-.2.13-.15.11-.3.27-.34.49-.02.08-.02.24-.02.24l29.92,17.19Z" fill="#fbd95f" stroke-width="0"/>
              <path d="m98.19,154.27l-.42-6.53c0-.22-.12-.43-.31-.54l-29.16-16.83c-.2-.11-.45.03-.45.26v6.28c0,.26.14.5.36.63l29.09,16.79c.21.12,1,.15.88-.07Z" fill="#f2982a" stroke-width="0"/>
              <path d="m98.49,146.98l-.27.16c-.27.16-.44.44-.44.76v6.24c0,.21.29.33.47.23l.39-.23c.12-.07.22-.24.22-.38v-6.56c0-.19-.2-.31-.37-.21Z" fill="#fbb23f" stroke-width="0"/>
              <polygon points="120.55 136.47 116.69 138.77 120.54 136.8 120.55 136.47" fill="#e6edf7" mix-blend-mode="multiply" stroke-width="0"/>
              <polygon points="120.55 138.69 114.1 142.35 120.54 139.1 120.55 138.69" fill="#e6edf7" mix-blend-mode="multiply" stroke-width="0"/>
            </g>
            <path d="m108.14,132.34l-11,6.35-2.37-1.37-.26-5.98c-.19-1.59-.74-2.59-1.59-3.08-1.21-.7-2.59-.8-3.83-.09-1.09.63-.74,1.61.71,2.44l-3.56,2.06-.08-.03c-3-1.63-3.13-4.2.13-6.09,3.47-2,7.28-2.14,10.25-.42,1.99,1.15,2.16,2.23,2.42,5.57l.14,2.55h.1s6.13-3.52,6.13-3.52l2.82,1.63Z" fill="#fbb23f" stroke-width="0"/>
          </g>
          <g id="cn" data-name="book 1">
            <g>
              <path d="m37.12,163.87l-20.52,11.9,28.71,16.48,5.11.05c.11-.06-13.31-28.43-13.31-28.43Z" fill="#bfccd9" mix-blend-mode="multiply" opacity=".5" stroke-width="0"/>
              <path d="m73.57,178.45l-52.3-3.48,29.63,17.11,22.56-13.02c.09-.05.14-.14.14-.24l-.03-.37Z" fill="#616b8c" stroke-width="0"/>
              <path d="m73.49,178.32l-29.39-16.97-22.73,13.13,29.7,17.07,22.42-12.95c.11-.06.11-.22,0-.28Z" fill="#7e87a8" stroke-width="0"/>
              <polygon points="72.77 178.49 72.77 172.51 50.92 185.15 50.92 191.13 72.77 178.49" fill="#e6edf7" stroke-width="0"/>
              <polygon points="51.02 185.99 72.77 173.4 72.77 172.51 50.92 185.15 51.02 185.99" fill="#e6edf7" mix-blend-mode="multiply" stroke-width="0"/>
              <path d="m51.58,190.75s-.09-.57-.1-2.71c0-2.44.1-3.27.1-3.27l-.62.35v5.98s.14.08.45-.08c.21-.11.17-.28.17-.28Z" fill="#b848b5" stroke-width="0"/>
              <path d="m21.45,168.19l29.63,17.11,21.97-12.7c.1-.06.16-.16.16-.27v-.5l-51.76-3.64Z" fill="#616b8c" stroke-width="0"/>
              <path d="m73.14,171.69l-29.19-16.85c-.13-.07-.29-.07-.42,0l-22.29,12.87,29.63,17.11,22.27-12.85c.1-.06.1-.21,0-.27Z" fill="#7e87a8" stroke-width="0"/>
              <path d="m51.28,184.58l-29.63-17.11-.41.24,29.31,17.17.42.15.15-.07c.11-.05.18-.17.17-.29v-.09Z" fill="#3d4663" stroke-width="0"/>
              <path d="m50.01,185.82l1.07-.53v-.18c0-.21-.11-.4-.29-.5l-29.24-16.87c-.28-.19-.62-.13-.91.04-.05.03-.15.09-.2.13-.15.11-.3.27-.34.49-.02.08-.02.24-.02.24l29.92,17.19Z" fill="#7e87a8" stroke-width="0"/>
              <path d="m50.42,192.29l-.42-6.53c0-.22-.12-.43-.31-.54l-29.16-16.83c-.2-.11-.45.03-.45.26v6.28c0,.26.14.5.36.63l29.09,16.79c.21.12,1,.15.88-.07Z" fill="#3d4663" stroke-width="0"/>
              <path d="m50.72,185l-.27.16c-.27.16-.44.44-.44.76v6.24c0,.21.29.33.47.23l.39-.23c.12-.07.22-.24.22-.38v-6.56c0-.19-.2-.31-.37-.21Z" fill="#616b8c" stroke-width="0"/>
              <polygon points="72.78 174.48 68.92 176.79 72.77 174.82 72.78 174.48" fill="#e6edf7" mix-blend-mode="multiply" stroke-width="0"/>
              <polygon points="72.77 176.71 66.33 180.37 72.77 177.12 72.77 176.71" fill="#e6edf7" mix-blend-mode="multiply" stroke-width="0"/>
            </g>
            <g>
              <path d="m28.6,174.88c.38.61.57,1.32.56,2.12,0,.76-.21,1.24-.63,1.47-.42.21-.98.13-1.68-.28l-1.13-.65v-4.91s1.19.68,1.19.68c.75.43,1.32.96,1.69,1.58Zm-.44,3.02c.31-.16.47-.56.48-1.19s-.14-1.19-.44-1.67c-.29-.47-.72-.89-1.3-1.22l-.67-.39v3.87s.63.37.63.37c.56.32,1,.4,1.3.23" fill="#7e87a8" stroke-width="0"/>
              <path d="m31.06,175.7l1.63,5.86-.56-.32-.43-1.56-1.85-1.07-.41,1.08-.56-.32,1.65-3.96.52.3Zm-1.03,2.48l1.52.88-.68-2.55-.04-.15c0-.06-.02-.13-.03-.22h-.01s-.03.17-.03.17l-.04.12-.69,1.76" fill="#7e87a8" stroke-width="0"/>
              <path d="m36.31,178.73v4.91s-.63-.35-.63-.35l-2.19-5.18-.08-.2-.06-.19h-.02s.01.13.02.25c0,.11,0,.25,0,.43v3.54s-.51-.29-.51-.29v-4.91s.67.38.67.38l2.13,5.09c.04.11.08.19.11.26l.06.16h.01c-.01-.07-.02-.17-.02-.29,0-.12,0-.27,0-.44v-3.46s.51.29.51.29Z" fill="#7e87a8" stroke-width="0"/>
              <path d="m38.15,179.71c.19.11.38.24.56.4.18.15.37.33.56.55l-.19.36c-.17-.18-.33-.34-.48-.47s-.32-.24-.5-.35c-.26-.15-.45-.2-.61-.14-.15.05-.22.2-.23.44,0,.22.07.43.2.63.14.21.37.47.69.79.43.43.73.81.92,1.13.18.33.28.68.28,1.05,0,.4-.13.65-.38.78-.25.12-.6.05-1.05-.21-.26-.15-.49-.32-.7-.52-.21-.2-.43-.44-.64-.72l.24-.29c.18.23.35.42.52.58.18.16.38.31.61.44.26.15.47.21.64.16.17-.04.26-.2.26-.47,0-.23-.07-.47-.22-.7-.14-.23-.37-.5-.69-.82-.4-.4-.69-.75-.89-1.08-.19-.32-.29-.65-.28-.99,0-.4.13-.65.38-.76.25-.11.58-.04.99.2Z" fill="#7e87a8" stroke-width="0"/>
              <polygon points="42.59 182.36 40.76 183.66 42.71 187.34 42.01 186.94 40.37 183.74 40.3 183.59 40.26 183.51 40.24 185.92 39.74 185.63 39.75 180.72 40.26 181.01 40.25 183.31 40.31 183.27 40.37 183.22 41.97 182 42.59 182.36" fill="#7e87a8" stroke-width="0"/>
            </g>
            <path d="m57.62,172.48l-3.63,2.1-12.05-6.96-3.5,2.02-2.58-1.49,6.04-4.75,15.72,9.08Z" fill="#616b8c" stroke-width="0"/>
          </g>
          <g id="co" data-name="woman 2">
            <g id="cp" data-name="woman">
              <path d="m207,139.47c.15,1.54,3.26,2.58,6.17,2.5,3.78-.1,5.37-2.09,5.22-3.62-.15-1.54-2.85-2.22-5.75-1.95-2.9.27-5.79,1.53-5.65,3.07Z" mix-blend-mode="multiply" opacity=".1" stroke-width="0"/>
              <g>
                <g>
                  <path d="m213.35,138.63c-.67.41-.89.61-1.84.92-.28.09-1.14.25-1.5-.06-.07-.06-.12-.37-.11-.45.02-.28.39-.29.57-.41.75-.47,1.33-.61,2.12-.93.15-.06.93-.41,1.28-.5.23-.06.74.05.77.1.22.34.17.68-.12.81-.28.13-.63.18-1.16.51Z" fill="#616b8c" stroke-width="0"/>
                  <path d="m210.31,138.46c.13-.09.32-.2.32-.21.61-.37,1.54-1.13,1.58-1.18.18-.3,1.04,0,1.46-.23.55-.31.77-.37.91-.29.02.01.04.03.06.07.04.11.11.34.12.44.02.21,0,.46,0,.46-.02.16-.15.28-.26.32-.29.12-.63.18-1.16.51-.67.41-.89.61-1.84.92-.28.09-1.1.24-1.46-.06-.14-.12-.26-.45.28-.76Z" fill="#2f384f" stroke-width="0"/>
                </g>
                <g>
                  <path d="m214.11,139.09c-.22.38-.58.53-.79,1.12-.14.39.01,1.1.76,1.12.57.02.95-.22,1.29-.54.46-.41.78-1.06.78-2.01,0-.13.15-.23.24-.47.23-.58.36-1.29-.66-1.45-1.02-.16-1.05,1-1.16,1.26-.1.25-.19.5-.46.96Z" fill="#616b8c" stroke-width="0"/>
                  <path d="m213.43,139.82c.26-.48.53-.92.67-1.28.02-.04.07-.1.08-.14.06-.29.05-.45.11-.62.01-.12.02-.23.05-.33.06-.27.36-.98,1.34-.84.45.06.59.26.64.44.15.21.09.47.09.58,0,.27-.39.96-.42,1.09-.15.88-.36,1.45-.83,1.92-.27.27-.94.57-1.45.36-.57-.23-.5-.78-.28-1.19Z" fill="#2f384f" stroke-width="0"/>
                </g>
                <path d="m214.49,136.45c-.07-.38-.41-5.89-.96-8.91-.12-.66-.03-1.66-.29-2.36,0-1.07-.17-4.16-.37-7.7-.05-.91-.36-4.25-.63-7.06-.05-.53-1.87-1.32-2.36-1.53-.82-.36-1.92.23-2.01.81-.5,3.27.13,6.03,1.31,9.83.92,2.97,1.32,4.67,1.53,6.01,0,0,.22,1.97.9,7.02.34,2.52.34,3.5.53,4.6.06.34.8.67,1.59.31.67-.3.8-.77.76-.99Z" fill="#37415e" stroke-width="0"/>
                <path d="m213.97,132.98c-.24-3.93-.32-3.95-.77-8.05-.45-9.83-1.74-11.35-2.3-11.64-.16-.08-.24-.24-.3-.4-.31-.94-.18-2.98,0-3.07,1.34-.67,3.2-.41,4.44-.42.43,0,1.21.14,1.63,1.3.62,1.71.61,3.71.18,6.33-.23,1.41-.59,4.02-.68,7.3.11.64.33,2.62.39,4.21.1,2.97-.2,8.6-.2,8.6,0,0,.07.89-.49,1.19-.4.21-1,.23-1.51.04-.33-.12-.07-.71-.1-1.1-.05-.82-.14-1.67-.3-4.29Z" fill="#616b8c" stroke-width="0"/>
              </g>
              <g>
                <path d="m205.35,103.31c-1.41-.58,1.97-6.75,2.02-7.47.16-2.18.98-2.54,1.38-2.6,1.01-.15,1.14.95,1.21,1.62.06.52-1.36,6.11-1.67,6.93l-2.95,1.53Z" fill="#edc5ac" stroke-width="0"/>
                <g>
                  <path d="m216.45,110.42s-.21.23-.63.36c-.37.11-.9.22-1.57.26-1.82.1-4.01.13-5.33-.5-.75-.36-1.28-.65-1.24-1.36.04-.8.17-1.74.53-4.77.06-.48-.23-1.84-.57-3.46-.1-.49-.22-.87-.49-1.3-.51-.78-.23-1.81.42-3.08.24-.47.39-1.09.62-1.96.22-.86.58-1.34,1.09-1.45.32-.07,3.39-.5,4.81.36.78.48,1.75,1.36,2.33,2.02.17.19.31.41.64.85.17.23.26.61.27.68.04.44.35,1.69-.79,6.9-.07.3-.1.97-.12,1.52-.13,3,.26,4.6.04,4.94Z" fill="#f7f9fc" stroke-width="0"/>
                  <path d="m216.7,110.37c-.11.11-.76.43-1.29.52.08-1.46-.29-4.05-.4-4.78-.2-1.3-.82-3.43-1.99-3.88-.4-.15,1.59-.27,1.84-1.91.18-1.17.16-.84.23-2.7.04-1.17.95-1.55,1.41-1.52.45.03.69.53.67.59-.02.05.55,1.3-.05,4.41-1.04,5.39-.02,8.88-.41,9.26Z" fill="#e6edf7" stroke-width="0"/>
                  <g>
                    <path d="m209.26,85.78c-.54.63-.93,2.05-.85,2.28.41,1.17-.95,2.58.4,5.15.71,1.34,3.33-.05,4.06-.23.45-.11-.42-1.23.04-1.52.43-.27.76-.8,1.15-1.24,1.85-2.08,1.89-5.14.22-6.02-1.66-.88-4.04.41-5.04,1.59Z" fill="#2a3145" stroke-width="0"/>
                    <path d="m214.16,93.5c0,.1-.03.2-.1.28-.38.46-1.75,1.97-2.91,1.42-.57-.27.07-1.26.12-1.95.02-.32.1-1.3.1-1.3l3.2-1.35s-.32,1.27-.39,1.71c-.04.26-.03.9-.03,1.19Z" fill="#edc5ac" stroke-width="0"/>
                    <path d="m209.49,85.99c-.18.44-.26,1.12-.26,1.87,0,.13.16.37.19.6.02.22-.11.49-.11.81-.03,1.72,1.08,3.26,1.41,3.33.49.1,1,.15,1.72-.07.44-.13,1.01-.59,1.46-.9.41-.29.71-.85,1.08-1.31,1.73-2.18.8-4.31-.91-5.09-1.71-.78-4-.68-4.57.76Z" fill="#fbd1b8" stroke-width="0"/>
                    <path d="m210.18,84.91c-.89.69-1,2.31-.19,2.36,2.89.19,2.34,1.17,2.35,2.2,0,.21.28,1.57.24,2.01-.07.74,1.34,1.08,1,1.86-1.63,3.81,1.46,2.46,2.39,2.25,1.25-.28,1.59,3.34,1.95,2.42,1.03-2.66-1.4-2.48-.26-4.66.76-1.46-1.01-1.95-.29-4.29.56-1.82-.61-2.78-1.05-3.49-1.58-2.57-4.79-1.7-6.14-.66Z" fill="#3d4663" stroke-width="0"/>
                  </g>
                </g>
              </g>
            </g>
            <path d="m218.1,104.73c-.19,1.29-1.96,1.45-4.45.86-1.03-.24-2.98-1.05-3.5-1.42-.74-.52-1.63-1.09-1.63-1.09-.33.19-.95.13-1.42-.68-.33-.58-.89-1.02-1.04-1.52.06-.73.39-.99,1.01-.67.27.13,1.05.48,1.51,1.51.22.48.92.6,1.85.99.83.35,1.65.72,3.7,1.02.65.1,1.43.22,1.64-.37,0,0,2.44.62,2.33,1.37Z" fill="#fbd1b8" stroke-width="0"/>
            <path d="m215.65,103.99c.4-1.39-.27-4.58-.33-5.6-.05-.8.04-1.14.37-1.61.28-.4.71-.43.85-.41.48.06.87.5,1.12,1.43.19.72.38,1.5.46,2.69.09,1.29.25,3.35-.03,4.24l-2.44-.75Z" fill="#fbd1b8" stroke-width="0"/>
            <path d="m205.08,103.04c.38.98.85,1.73,4.77,1.48,1.34-.09,3.76-.47,4.18-.51.05,0,1.39-.06,1.88-.32.05-.02-.08-.99.05-1.34.02-.07.72-.67.71-.89-.03-.4-.81.08-1.3.33-.84.19-1.31.74-1.58.81-.78.19-1.64.15-3.35.12-1.91-.04-2.59.15-3.5-.58l-1.85.91Z" fill="#edc5ac" stroke-width="0"/>
          </g>
          <g id="cq" data-name="woman">
            <path d="m182.62,200.57s-2.38-.45-2.61,1.03c-.22,1.48.94,2.97,3.28,3.05,2.34.09,3.01-.22,5.84,0,2.83.22,3.77-1.84,2.43-2.52-1.35-.67-6.38-1.93-8.94-1.57Z" mix-blend-mode="multiply" opacity=".1" stroke-width="0"/>
            <g>
              <path d="m188.43,200.31c-1-.33-1.92.16-3.24.17-.4,0-1.42-.44-1.88.4.04.44.35.77.7.9.64.41,1.42.56,2.08.28.8-.3,1.71-.54,2.1-.53.22,0,.68,1.1.68,1.1.23.08.33.01.35-.04.17-.65.38-1.09.67-1.38.2-.24.25-.79,0-.98-.41-.06-.63.36-1.43.09Z" fill="#2f384f" stroke-width="0"/>
              <path d="m184.43,200.76c.03.08.58.55.66.56.82.09,2.99-.38,4.04-1.14.7-.51.23-1.41.23-1.41-.12-.27-.35-.7-.36-1.17,0-.21-1.91-.36-1.98.57-.07.87-.58,1.36-.64,1.41-.34.26-1.07.39-1.23.42-.21.05-.57.15-.67.29-.05.06-.07.4-.04.47Z" fill="#edc1a6" stroke-width="0"/>
              <path d="m189.39,198.73c-.05-.07-.29.38-.34.45-.27.37-.75.8-1.13,1-1.66.92-2.59.98-3.06.67-.07-.04-.32-.36-.06-.66.11-.13.21-.15.35-.19-.36.06-.74.02-1.33.22-.38.13-.54.23-.5.65.02.27.59.68,1.03.89.31.15.68.21.93.19.95-.07,1.18-.23,1.63-.34.48-.12.74-.23,1.12-.28.2-.03.33,0,.73.06.4.07,1.03-.04,1.21-.4.32-.64-.27-1.61-.27-1.61l-.29-.65Z" fill="#616b8c" stroke-width="0"/>
            </g>
            <path d="m187.01,198.72c-.11-2.75-.3-4.76-.39-6.86-.05-1.22-.34-4.55-.61-5.71-.39-1.65-.3-8.66.16-8.97,1.94-1.31,3.11.9,3.11.9.08,2.89-.5,7.19-.39,7.55.97,3.17.53,4.12.08,8.14-.2,1.77-.04,3.99.22,4.74.17.49-.13.31-1.14.49-.38.07-1.03,0-1.04-.26Z" fill="#edc1a6" stroke-width="0"/>
            <g>
              <path d="m186.53,200.37c-1.13.47-1.43.57-2.71,1.07-.38.15-1.92.25-1.57,1.03.27.59.76.97,1.1,1.02.72.11,1.16-.06,1.87-.46.15-.08.79-.81,1.78-1.05.39-.09,1.03.68,1.2.96.02.03.06.05.1.04l.18-.05c.07-.02.11-.08.11-.16-.02-.46.09-.97.2-1.21.11-.24.2-.48.21-.83.01-.46-.3-.85-.73-.74-.41.1-.99.07-1.74.39Z" fill="#2f384f" stroke-width="0"/>
              <path d="m183.25,201.94c.03.09.29.27.38.27.39.01,2.42-.39,2.82-.59.43-.22,1.25-.78,1.41-1.01.29-.4.2-1.04.25-1.23.04-.14-.63-.86-.63-.86-.41.1-1.16.41-1.93.67,0,0-.06.87-1.33,1.89-.11.09-.32.17-.56.26-.05.06-.34.2-.39.24-.04.04-.04.31-.02.37Z" fill="#fbd5bf" stroke-width="0"/>
              <path d="m188.04,199.02c-.3-.26-.21-.11-.28.22-.05.2-.09.59-.38.99-.17.23-.48.59-.9.84-.66.4-1.46.85-2.65.93-.09,0-.4-.21-.35-.44.03-.13.13-.18.17-.24-.5.18-1.2.37-1.43.69-.12.16,0,.44.09.55,0,0,.77.9,1.67.72.82-.16,1.28-.51,2.45-1.34.58-.41,1.35-.17,1.81-.38.3-.14,1.03-.59.66-1.48-.18-.42-.65-.89-.85-1.07Z" fill="#7e87a8" stroke-width="0"/>
            </g>
            <path d="m191.48,174.89c-.12-.5,1.07-1.76,1.14-2.1.04-.15.14-.48.2-.78.02-.12,1.24.11,1.23.19-.05.4,0,.58.08,1.02.22,1.2-.08,2.09-.15,2.35-.18.68-1.62,1.11-2.05.83-.12-.08.65-1.24.23-1.78-.2-.25-.31,1.83-.67.26Z" fill="#edc1a6" stroke-width="0"/>
            <path d="m189.11,158.6c-.26-.55-.19-1.09.09-1.51.28-.42,1-.5,1.59.02.38.34,3.33,5.89,3.68,7.12.12.39.23.98.23,1.54,0,.64-.19,2.43-.43,5.56-.04.58-.07,1.29-.07,1.29,0,0-.17.36-.96.3-.5-.04-.6-.3-.6-.3,0,0-.04-4.64-.11-6.77-.01-.39-.11-.77-.27-1.12-.76-1.61-2.91-5.64-3.14-6.12Z" fill="#3d4663" stroke-width="0"/>
            <path d="m187.58,198.62s.13.92-1.19,1.37c-.79.27-.88-.72-.88-.72-1.39-4.14-2.1-5.91-2.8-7.61-1.2-2.94-1.9-4.41-2.1-5.33-.12-.54.08-5.84.04-5.98-.3-1.09,4-.63,4-.63,0,0-1.19,6.03-.92,6.47,1.53,2.41,1.85,5.96,2.16,7.62.54,2.88,1.69,4.82,1.69,4.82Z" fill="#fbd5bf" stroke-width="0"/>
            <g>
              <path d="m180.52,182.4s1.04,1.42,5.7,1.01c1.96-.18,3.05-1.13,3.05-1.66.02-4.51.97-4.91,1.15-6.14.27-1.89-.45-3.57-.76-4.37-.06-.15-.57-1.65-.57-1.75-.03-1.35.88-5.78,1.79-9.43.2-.79.41-2.59-.46-3.17-.33-.22-1.23-.34-1.92-.29-.94.06-2.08-.03-2.96.37-.98.45-1.55.89-2.49,1.84-.13.13-.81.71-.97,1.2-.28.84-.66,1.96-1.32,3.41-.32.69.94,1.8,1.32,2.19.55.59.34,3.13.25,3.76-.12.77-.86,2.42-1.27,3.75-.38,1.24-.71,2.97-.69,4.63.03,2.59.17,4.66.17,4.66Z" fill="#616b8c" stroke-width="0"/>
              <g>
                <path d="m188.18,156.63l-.1-2.86-2.85.7.23,2.59s.2.54,1.78.43c.4-.03.7-.27.83-.47.07-.11.11-.25.1-.38Z" fill="#edc1a6" stroke-width="0"/>
                <path d="m190.14,152.16c-.9,2.94-3.09,1.65-3.11,1.84-.03.29-.23.38-.37.41-.13.02-.26-.08-.33-.15-.1-.1-.3.54-.97.92-.71.4-1.63.2-1.63-.31,0-.38-.05-.81-.12-1.11-.07-.27.09-.39.08-.66-.01-.3-.37-.39-.32-.67.04-.24.75-.88.84-1.04.08-.13-.04-.56.01-.7.49-1.36.72-2.31,2.79-2.13,2.46.22,3.73,1.63,3.13,3.6Z" fill="#fbd5bf" stroke-width="0"/>
                <g>
                  <path d="m190.82,153.57c.4-.79.5-2.15.31-3.03-.36-1.64-1.11-2.47-2.8-2.6-1.51-.12-2.93.17-3.55,1.13-.07.11-.33.56-.41.89-.08.32-.18.85.14,1.83.4,1.21,1.3.79,1.58,1.74.03.11.3-.25.16-.98-.07-.39.25-.7.58-.62.47.11.41.74.21,1.84-.11.62.11,1.18.37,1.53.33.46-.14-.38,1.11-.38.6,0,1.77-.33,2.29-1.35Z" fill="#2f384f" stroke-width="0"/>
                  <path d="m190.8,151.89c.15,0,.29,0,.42-.01.03-.48,0-.95-.08-1.34-.25-1.15-.85-1.96-1.68-2.35-.42.29-.52.84-.56,1.49-.06,1.16.74,2.15,1.9,2.21Z" fill="#1c2233" stroke-width="0"/>
                  <path d="m189.14,149.21c-.06,1.16.74,2.15,1.9,2.21,1.16.06,2-.58,2.06-1.74.06-1.16-.83-2.15-1.99-2.21-1.16-.06-1.91.58-1.97,1.74Z" fill="#2f384f" stroke-width="0"/>
                  <path d="m190.74,150.38c-.21-.08.01.31.01.31,0,0-.47-.19-.61-.61-.2-.13.07.84.07.84,0,0-.65-.5-.44-1.28-.23-.4-.42-.84-.4-1.34-.14.25-.22.56-.24.92-.06,1.16.74,2.15,1.9,2.21,1.16.06,2-.58,2.06-1.74,0-.03,0-.06,0-.09-.07.13-.17.25-.3.36-.03.28-.22.47-.22.47,0,0,.03-.32,0-.29-.48.32-1.17.49-1.82.25Z" fill="#202b42" stroke-width="0"/>
                </g>
              </g>
            </g>
            <path d="m180.71,174.45c.11-.54.21-.9.34-1.34.19-.63.46-1.32.7-1.97,1.9-.6,7.19-1.16,7.19-1.16,0,0,.7,1.59,1.25,2.75.14.52.19.75.26,1.42-.27.5-1.33.99-2.2,1.01l-.6-.46-.03.61c-3.04.52-6.07-.47-6.91-.86Z" fill="#bfccd9" mix-blend-mode="multiply" stroke-width="0"/>
            <path d="m190.1,163.4s-1.05,4.52.45,9.19c.22.69-.74,1.82-2.15,1.91,0,0-.54-.85-.71-2.46-.03-.25-.16,2.64-.16,2.64-2.16.65-6.46-.42-7.02-1.02,0,0,1.61-4.49,1.75-7.74.03-.74,7.83-2.52,7.83-2.52Z" fill="#616b8c" stroke-width="0"/>
            <path d="m188.16,156.17v.18c0,.07-.04.14-.09.17-.06.04-.16.09-.26.13-.2.07-2.07.29-2.39-.14-.14-.19-1.44,1.13-1.44,1.13,0,0,.89-.07,1.77.03.88.1,2.15.19,2.57-.25.35-.37.3-1.24-.16-1.25Z" fill="#f7f9fc" stroke-width="0"/>
            <g>
              <path d="m169.65,164.36c.4.32.88.88,1.23,1.22.13.13.72.2.73.23.03.14-.32,1.49-.4,1.48-.47-.1-.75-.24-1.21-.18-.63.09-1.05-.13-1.36-.27-.28-.13-1.18-.52-1.28-1.27-.02-.19-.18-1.05.07-1.09.16-.02.35.42,1,.58.06.01,1.31.4.7-.57-.34-.53-.19-.59-.04-.57.18.02.3.24.55.44Z" fill="#fbd5bf" stroke-width="0"/>
              <path d="m183.33,159.61c.68.23.75,1.01.75,1.6,0,.61-.02,1.45-.63,2.42-.32.5-.81,1.23-1.34,1.99,0,0-.01-.02-.02-.02-.37-.4-1.63-1.5-1.32-2.19.11-.24.21-.46.3-.68.54-.78.94-1.35.97-1.4.48-.86.61-1.93,1.3-1.71Z" fill="#bfccd9" mix-blend-mode="multiply" stroke-width="0"/>
              <path d="m183.13,159.39c-.67-.26-1.24.21-1.72,1.07-.07.13-2.65,3.79-3.69,5.43-1.04.03-2.68.09-3.42.05-1.57-.08-3.02-.38-3.02-.38,0,0-.51-.2-.82.76-.15.47.24.99.24.99,0,0,2.01.44,2.35.49,1.75.28,2.59.45,4.18.51,1.13.05,1.67-.08,1.96-.43.25-.22.45-.51.55-.66.91-1.26,2.41-3.36,3.1-4.44.61-.97.93-1.52.93-2.14,0-.59-.16-1.07-.62-1.25Z" fill="#616b8c" stroke-width="0"/>
            </g>
          </g>
          <g id="cr" data-name="man 2">
            <path d="m231.92,132.46s-3.49.8-4.2,1.55c-.71.75-.04,1.62,1.03,1.7,1.07.08,2.97.95,2.73,2.02-.24,1.07-.49,1.72.62,2.28,1.32.66,3.33.57,3.88-.61.79-1.69,1.18-2.19,1.77-2.98.59-.79.42-1.82-.33-2.06-.75-.24-1.39-.59-1.62-1.03-.24-.44-3.88-.87-3.88-.87Z" mix-blend-mode="multiply" opacity=".1" stroke-width="0"/>
            <g>
              <path d="m224.65,97.95c.06-.36,1.58-3.35,1.88-4.15.67-1.75.94-2.56,1.53-3.78.39-.82,1.39-1.5,1.97-1.22.49.24.65.62.58,1.36-.06.71-.11,1.97-.53,3.4-.55,1.87-2.6,6.08-4.48,6.12,0,0-1.26.22-.95-1.73Z" fill="#e6edf7" stroke-width="0"/>
              <path d="m229.13,91.57c.17-.24.58-.35.75-.18.25.26.36.61.24.86-.32.69-.03,1.87-1.31,4.27-.47.87-1.16,1.82-1.64,2.55-.51.51-1,.59-1.56.61,0,0-1.26.22-.95-1.73,0-.05.04-.13.08-.25.41-.71,1.2-2.13,1.79-2.87,1.38-1.75,2.17-2.64,2.61-3.26Z" fill="#bfccd9" mix-blend-mode="multiply" stroke-width="0"/>
            </g>
            <g>
              <g>
                <path d="m233.22,136.98c-.26.45-.22.25-.65,1.02-.24.43-.43,1.16.55,1.34.63.12,1.3-.13,1.73-.44.28-.2.75-.68.99-1.4.05-.15.49-.44.7-.73.22-.3.63-1.26-.47-1.83-1.1-.57-1.93.68-2.13.96-.19.26-.35.42-.73,1.08Z" fill="#6d7591" stroke-width="0"/>
                <path d="m236.71,135.28c-.14-.49.01-.77-.42-.84-1.23-.19-1.97.45-2.12.74-.14.29-.4.64-.67,1.14-.19.36-.35.71-.54.93-.14.16-.29.38-.35.51-.16.36-.41.88.25,1.17.68.29,1.43-.02,1.82-.27.45-.29.73-.66,1.08-1.37.07-.14.79-.85.91-1.28.03-.1.15-.43.04-.75Z" fill="#3d4663" stroke-width="0"/>
              </g>
              <g>
                <path d="m232.69,133.91c-.64.29-.91.46-1.68.59-.38.06-1.65.26-2.08-.17-.08-.08-.09-.46-.07-.56.06-.35.68-.45.92-.57,1.02-.5.99-.26,2.04-.57.19-.06,1.25-.39,1.71-.47.31-.05,1.48.11,1.51.18.28.72-.39.93-.79,1.07-.38.13-.82.16-1.56.49Z" fill="#6d7591" stroke-width="0"/>
                <path d="m234.9,131.06c-.02-.12-.06-.17-.1-.2-.25-.19-.68.37-1.43.7-.56.25-.86-.43-1.29-.05-.06.05-.61.64-1.44,1.03-.07.03-.84.31-.86.32-.57.24-1.16.72-.85,1.13.4.53,1.7.25,2.08.17.47-.09.76-.16,1.68-.59.73-.34,1.18-.37,1.56-.49.3-.1.82-.27.82-.58,0,0,.08-.31.05-.58-.06-.48-.19-.71-.22-.86Z" fill="#3d4663" stroke-width="0"/>
              </g>
              <path d="m229.42,106c.07-.88,1.67.6,2.42.82.44.13,1.49.69,1.76,1.07,1.08,1.48,1.23,2.53,1.23,3.33,0,1.38-.44,2.65-.75,4.15-.33,1.59-.3,4.18-.19,5.73.06.62,1.03,9.72.86,10.08-.08.18-.58.73-1.17.8-1.41.15-1.51-.41-1.5-.64.06-1.02-1.18-7.95-1.47-9.87-.37-1.67-1-5.17-1.17-7.63-.18-2.69-.22-5.23-.01-7.82Z" fill="#424c66" stroke-width="0"/>
              <path d="m232.27,107.31c.03-2.01,3.36-1.39,3.97-1.27.37.07,1.85.44,2.52,1.83.5,1.04-.44,9.01-1.2,14.49-.1.93-1.14,12.17-1.14,12.17,0,0,0,.54-.49.85-.85.54-1.46.4-1.73.32-.32-.1-.28-.23-.28-.57-.02-5,.28-9.25.16-12.17-.17-1.89-.04-11.7-1.61-12.36-.41-.17-.22-2.88-.22-3.29Z" fill="#6d7591" stroke-width="0"/>
            </g>
            <g>
              <g>
                <path d="m228.57,94.55c-.21-1.89-.15-4.2.53-5.15.25-.35.45-.52.78-.66.29-.12,3.89.37,5.09.99,1.74.91,4.01,3.21,4.45,4.08.27.55.37,2.86.33,5.45-.05,2.96-.82,7.86-1.04,8.11-.43.51-1.99.6-1.99.6-4.34.24-6.74-1.33-7.25-2.51-.06-.14-.19-1.97-.4-4.69-.05-.61-.39-5.26-.5-6.23Z" fill="#f7f9fc" stroke-width="0"/>
                <path d="m239.31,93.6c.49.36.49,3.07.44,5.66-.02,1.29-.18,2.95-.37,4.43-.14-1.26.05-2.29-.64-4.57-.37-1.21-1.29-2.88-1.45-4.14-.12-.93.78-2.3,2.02-1.38Z" fill="#e6edf7" stroke-width="0"/>
                <path d="m232.11,106.96l.42.1s-.33-4.99-.1-12.54c.03-1.09.87-3.96.87-3.96l-.77-.61s-.47,3.3-.53,4.45c-.42,7.37.12,12.57.12,12.57Z" fill="#e6edf7" stroke-width="0"/>
                <g>
                  <path d="m238.85,106.92s-5.88,1.36-9.44-1.9c-.16.03-.05.73-.02.91,0,.03.02.05.04.07.32.33,3.25,3.08,9.41,1.77.11-.45.02-.85.02-.85Z" fill="#3d4663" stroke-width="0"/>
                  <path d="m232.86,106.74l-.96-.28c-.09-.03-.17.04-.18.13l-.03.78c0,.07.04.12.1.14l.98.25c.09.02.17-.04.17-.13l.02-.75c0-.06-.04-.12-.1-.14Z" fill="#bfccd9" stroke-width="0"/>
                </g>
                <g>
                  <path d="m234.26,88.82l-.08.69s-1.6,1.17-2.39,2.33c-.03-.79-.19-1.28.08-1.74,1.13-.95,2.4-1.28,2.4-1.28Z" fill="#e6edf7" stroke-width="0"/>
                  <g>
                    <path d="m235.7,90.16c0,.18-.17.38-.23.43-.26.24-1.14.67-2.24.4-.61-.15-.7-.62-.7-.62l-.02-1.21,3.42-2.75s-.24,2.67-.24,3.11c0,.25,0,.43,0,.63Z" fill="#edc1a6" stroke-width="0"/>
                    <path d="m230.76,82.91c-.24.39-.27.84-.29,1.56,0,.12-.18,1.43-.16,1.74.11,1.62.65,2.69.98,2.84.43.2.93.36,1.62.13.34-.12,1.33-.61,1.74-.86.26-.15.53-1.07.64-1.34.07-.17.06.2.29.21.18.01.25-.09.29-.13,1.71-2.05,1.79-5.07.17-5.86-1.62-.79-4.48.43-5.27,1.7Z" fill="#fbd5bf" stroke-width="0"/>
                    <path d="m234.79,84.96s-.24,1.01,0,1.29c.02.03.15.17-.02.8-.05.19-1.34.82-1.89,1.2-.08.05-.81-.7-1.47-.86-.61-.15-.9.07-.9.09-.02.28.38,1.83.74,1.93.55.15,3.35-.31,3.67-.82.3-.47.51-2.31.63-2.45-.17-.12-.24-.55-.06-.91.14-.28-.67-.63-.69-.28Zm-3.13,3.46c-.13.04-.43-.03-.54-.12-.05-.05-.17-.32-.17-.32l1,.29s-.23.13-.29.16Z" fill="#2f384f" stroke-width="0"/>
                    <path d="m230.68,81.83c-.4.04-.77.66.16,1.01.17.06.16.27.5.43.36.17.74-.02,1.05.11.24.1.13.31.66.33.37.02.82-.24.98-.24.07,0,.12.02.16.05.04.03.07.07.1.12.11.25.02.67.04.72.14.29.52.38.47.73,0,.06-.52,1.86.72,1.06.18-.11-.25-.38-.05-.73.16-.27.34-.45.56-.46.42-.02.36.64.12,1.24-.28.69-.42.79-.35.94.27.59,1.19.17.88-.42-.06-.12.13-.1.18-.48.03-.24-.07-.34-.01-.49.08-.2.23-.19.28-.41.06-.22-.01-.36.04-.5.07-.19.26-.27.32-.52.06-.27-.06-.41-.04-.6.03-.22.15-.32.11-.62-.03-.27-.16-.35-.23-.57-.08-.27.03-.39-.06-.62-.13-.31-.32-.33-.47-.48-.1-.1-.02-.29-.27-.45-.21-.14-.45-.08-.59-.14-.13-.05-.13-.19-.4-.25-.28-.07-.47.01-.63,0-.16-.02-.31-.15-.57-.14-.35,0-.36.15-.57.18-.2.03-.43-.1-.76,0-.33.09-.4.33-.62.4-.25.08-.48.04-.72.1-.55.13-.09.59-.99.68Z" fill="#2f384f" stroke-width="0"/>
                  </g>
                  <g>
                    <path d="m231.98,91.6s-.34,5.83-.82,7.25c-.7,2.09-.83,1.91-1.25,2.88-.31.71-.32,1.79-.29,2.05.04.41.71,1.27.71,1.27,0,0,.76-.43.95-.7.08-.11.09-1.66.28-2.21.26-.74.24-1.31.7-2.54.66-1.77.46-7.8.46-7.8l-.75-.2Z" fill="#6d7591" stroke-width="0"/>
                    <path d="m232.07,90.21c-.4.15-.23,1.01-.18,1.37.05.36.44.4.78.4.34,0,.61-.78.54-1.09-.08-.32-.74-.83-1.14-.68Z" fill="#3d4663" stroke-width="0"/>
                  </g>
                  <path d="m235.55,89.24c.14-.11.19-.36.19-.36.31.23.52,1.67.52,1.67,0,0-.72,1-3.34,1.57.27-.64.24-1.11.19-1.48-.02-.11.05-.22.17-.26,1.43-.42,2.16-1.05,2.27-1.14Z" fill="#e6edf7" stroke-width="0"/>
                </g>
              </g>
              <g>
                <path d="m240.39,103.09c.11-.39.2-1.29-.32-2.3,0,0-1.18-3.19-1.96-4.45-1.39-2.24.87-4.31,2.6-1.26.74,1.3,1.27,3.24,1.82,4.76.59,1.64.74,2.98.45,3.68-.29.84-.53,1.45-1.38,2.88-.97,1.63-1.68,2.32-2.02,2.75-.11.14-1.09.04-1.31-.11-.42-.3-.5-.78-.43-.9.48-.78,2-3.03,2.55-5.05Z" fill="#f7f9fc" stroke-width="0"/>
                <path d="m236.46,109.59c-.05.02-.42.32-.47.35-.41.23-.51.18-.73.12-.23-.06.06-.22.37-.56.13-.14.42-.47.59-.55.1-.05.27-.11.47-.16.47-.17.78-.13,1.07-.45.08-.09.15-.1.15-.1.38-.21,1.46.7,1.3,1.01-.19.36-.17.55-.27.76-.14.28-.41.65-.96,1.28-.17.2-1.56-1.45-1.53-1.7Z" fill="#fbd5bf" stroke-width="0"/>
              </g>
            </g>
            <path d="m224.71,99.22c-.33-.74,1.25-2.91,2.24-4.48.96-1.53,1.89-3.01,2.33-3.63.17-.24.99.28,1.15.46.25.26.3.59.19.85-.32.69-.78,1.18-1.67,3.27-.43,1.01-1.14,2.64-1.93,3.89-.33.52-1.63,1.21-2.31-.35Z" fill="#e6edf7" stroke-width="0"/>
            <path d="m230.54,92.1c.32-.27,1.04-.4,1.48-.82.58-.55.59-.73.89-1.06.27-.29,1.1-.98.83-1.26-.22-.23-.83.11-1.74.46-.28.11-1.18.23-1.28.22-.79-.12.1-1.25-.1-1.57-.16-.25-.66.09-.94,1.12-.09.34-.13.65-.14.83,0,.12-.05.86-.09.99-.06.2-.03.42.11.56,0,0,.69.77.98.53Z" fill="#fbd5bf" stroke-width="0"/>
          </g>
          <g id="cs" data-name="man 3">
            <path d="m131.51,210.87s-8.81-1.04-9.83.77c-.74,1.33.39,2.34,4.57,4.39,4.18,2.05,5.49-.14,7.21-.84,1.72-.7,7.16.67,8.54-.58,1.38-1.25-.4-3.48-1.38-4.02-2.8-1.54-6.19-2.62-7.3-1.46-1.11,1.16.62,1.81-1.81,1.75Z" mix-blend-mode="multiply" opacity=".1" stroke-width="0"/>
            <g>
              <path d="m128.66,213.25c-.83-.48-1.08-.73-2.31-1.02-.37-.09-1.76-.51-2.28.05-.45.5.3,1.23.58,1.4.92.55,1.69.66,2.7,1,.19.06.51.45.97.56.84.19,1.59.36,2.25-.19.73-.61.17-1.32-.21-1.47-.36-.14-1.04.07-1.69-.31Z" fill="#616b8c" stroke-width="0"/>
              <path d="m130.84,213.9c0-.58-.29-1.71-.29-1.71-.02-.28-.44-.43-.69-.53-.36-.14-.75-.33-1.48-.54-.42-.12-.8.6-2.04.31-.37-.09-1.58-.29-2.17.2-.13.11-.19.25-.21.35-.01.05-.03.15-.04.2-.02.31.03.64.74,1.09.9.57,1.69.66,2.7,1,.19.06,1.18.43,1.64.51.31.05.78.05,1.53-.36.24-.13.31-.3.31-.51Z" fill="#2f384f" stroke-width="0"/>
            </g>
            <g>
              <path d="m139.06,211.99c-.76-.58-.98-.86-2.17-1.3-.35-.13-1.8-.84-2.27-.24-.5.65.13,1.29.4,1.46,1,.65,1.64.84,2.66,1.42.17.1.37.37.79.58.74.38,1.62.68,2.29.15.55-.43.1-1.41.1-1.41-.36-.14-1.2-.2-1.8-.66Z" fill="#616b8c" stroke-width="0"/>
              <path d="m140.99,212.84c.08-.53-.3-1.81-.3-1.81,0,0-.96-.89-1.65-1.19-.4-.17-.87.5-2.06.05-.35-.13-1.54-.48-2.18-.07-.14.09-.19.19-.24.29,0,0-.07.17-.08.22-.05.31-.05.63.6,1.17.82.68,1.6.86,2.56,1.32.18.09,1.12.58,1.57.71.3.09.95.32,1.56-.17.22-.18.2-.38.22-.53Z" fill="#2f384f" stroke-width="0"/>
            </g>
            <g>
              <path d="m140.84,208.26c.22-1.92.2-4.59.03-6.52-.06-.67-.14-2.85-.38-4.09-.18-1.67-.25-3.52-.17-6.33.05-1.82.26-2.35.39-3.79.12-1.33-.17-2.77-.47-3.25-.28-.45-1.38-.29-1.92-.26-.9.05-2.76.89-2.91,2.01-.25,1.87.02,1.82.04,4.47.01,2.69.59,6.07,1.16,8.61.09.35.5,2.3.54,2.72.12,1.17.49,3.07.54,4.32.07,1.85.07,2.48,0,4.16-.02.61.14,1.12,1.21,1.49,1.62.56,1.86-.26,1.86-.49,0-.43-.02-2.15.08-3.03Z" fill="#37415e" stroke-width="0"/>
              <path d="m138.94,183.63s-5.79-.32-6.64-.05c-.24.08-1.18,3.53-1.39,4.39-.47,1.92-.88,6.43-1,9.28-.22,2.4-.44,4.51-1,8.35-.24,1.66-.51,3.4-1.39,5.91,0,0-.49.73,1.1,1.48,1.75.82,2.04-.26,2.04-.26,0,0,.33-2.01,1.15-4.39.72-2.08.88-3.58,1.16-5.06.14-.75.88-4.15.94-5.18.66-2.19,1.72-5.93,2.05-6.85.52-1.43,1.1-2.61,1.83-3.81.12-.17.24-.34.37-.52.61-.91.77-3.28.77-3.28Z" fill="#616b8c" stroke-width="0"/>
            </g>
            <g>
              <path d="m130.73,180.75s-.53-.74-.72-1.19c-.26-.6-.16-1.18-.16-1.18,0,0,1.44-.69,1.74-.82,1.33-.56,5.53-2.89,5.53-2.89l2.01,2.61s-.64.35-1.39.72c-3.59,1.78-7.01,2.75-7.01,2.75Z" fill="#37415e" stroke-width="0"/>
              <path d="m141.12,166.79c-.49-.07-1.21.38-1.51,1.01-.27.57-.74,1.84-1.1,2.62-.68,1.44-1.25,2.47-2.16,4.46-.53,1.17,1.11,2.18,1.11,2.18,0,0,1.07.35,1.16.18.7-1.36,2.14-4.26,2.62-5.45.43-1.05,1.08-2.14,1.13-2.38.17-.78.19-1.47-.05-1.9-.31-.56-.71-.67-1.2-.73Z" fill="#37415e" stroke-width="0"/>
              <g>
                <path d="m130.54,179.52c.34.84.18.98.18.98-.15.1-.41.22-.41.22-.21-.01-.93-1.88-.64-1.97.2-.1.31-.07.34-.05.16.05.33.33.53.83Z" fill="#e4e4e4" stroke-width="0"/>
                <path d="m127.43,177.87c.55.04,1.11.25,1.31.33.51.12.55.82,1,.71.12-.03.16-.05.18-.06.09-.03.83,1.57.59,1.59-.55.03-.62.28-.83.42-.43.3-1.41-1.31-2.14-.76-.22.17-.59.64-.89.41-.11-.09-.37-.95-.33-1.13.11-.48,1.02-1.51,1.1-1.5Z" fill="#e6bba1" stroke-width="0"/>
                <path d="m130.66,179.5c.34.84.24,1.08.24,1.08-.17.05-.59.14-.59.14,0-.48-.33-1.61-.64-1.97.2-.1.39-.18.42-.19.14-.05.37.45.57.94Z" fill="#f3f5ff" stroke-width="0"/>
              </g>
              <path d="m135.35,175.2c.06.03.12.19.16.25.11.2.32.43.49.91.18.53.33.73.39,1.03.02.08,0,.15-.02.19-.03.05-.11.08-.25.16-.92.52-3.63,2.08-5.09,2.88-.32.18-1.05.36-1.19.39-.7.13-2.19-.4-2.59-.99-.29-.43-.26-.86-.26-.86,0,0,.14-.06.88-.46,1.22-.65,6.07-2.9,7.22-3.47.07-.03.21-.08.27-.05Z" fill="#37415e" stroke-width="0"/>
              <path d="m131.26,186.65c-.16.56-.29,1.06-.35,1.32-.03.14-.07.3-.1.45.54.27,1.41.61,2.59.81.61.1,1.95.23,3.37.1.27-.56.56-1.1.88-1.64.06-.44.06-.82.02-1.33-1.34.02-5.18.07-6.4.29Z" fill="#bfccd9" mix-blend-mode="multiply" stroke-width="0"/>
              <path d="m140.89,180.44c.18-1.58-.21-2.02.61-5.81.43-1.98,1.15-5.39.8-6.31,0,0-.27-.67-.82-1.1-.3-.23-.44-.28-.85-.31-.36-.03-.94.11-1.23.21-.87.31-2.54.97-3.39,1.37-.95.45-3.36,1.64-4.29,2.15-.37.2-.48.23-.52.5,0,0,0,.01,0,.03,0,.04,0,.07-.01.12,0,.02,0,.03.02.04.11,1.77.3,5.84.36,7.72.02.55-.07,2.24-.23,3.79-.12,1.12-.55,4.53-.55,4.53,0,0,1.33.78,3.29,1.03.64.08,2.13.26,4.18-.12,1.19-.22,2.66-1.02,2.66-1.02,0,0,.2-1.98-.01-4.11-.03-.28-.08-2.1,0-2.72Z" fill="#616b8c" stroke-width="0"/>
              <path d="m131.41,181.92c-.03.38-.06.76-.1,1.14-.02.17-.04.37-.07.59,1,.17,2.11.21,2.21-.08.1-.29.25-1.13.22-1.29l-2.27-.37Z" fill="#37415e" stroke-width="0"/>
              <path d="m132,170.63c-.49-.07-1.21.41-1.63,1.2-.44.83-.73,1.49-1.27,2.58-.89,1.8-1.13,2.41-2.04,4.41-.53,1.17,1.24,1.6,1.86,1.59.31,0,1.1-.22,1.18-.39.7-1.36,1.48-2.93,2.02-4.09.56-1.22.81-2.08.86-2.32.17-.78.26-1.53.12-2-.17-.55-.61-.92-1.1-.99Z" fill="#37415e" stroke-width="0"/>
              <g>
                <path d="m138.93,165.76l-3.46-1.04.11,3.48c-.01.18.27.46.89.57.75.14,2.22.11,2.29-1.02.02-.27.16-1.98.16-1.98Z" fill="#edc1a6" stroke-width="0"/>
                <path d="m140.83,163.21c-1.01,3.23-3.76,1.95-3.78,2.16-.03.31-.25.42-.41.45-.14.02-.29-.09-.36-.16-.11-.11.02.43-.73.84-.79.44-1.79.21-1.8-.35,0-.41-.05-.89-.13-1.22-.07-.3.1-.43.09-.73-.01-.33-.41-.43-.35-.74.05-.26.83-.97.94-1.14.09-.14-.04-.61.02-.77.55-1.49.81-2.54,3.08-2.32,2.71.26,4.1,1.82,3.43,3.98Z" fill="#fbd5bf" stroke-width="0"/>
                <path d="m141.1,161.3c-.29-.8-.49-1.54-1.64-1.91-1.72-.55-3.67.02-3.73-.49-.1-.92-1.27.44-.77,1.48.26.53,1.1.87,1.18.95-.03.01-.06.02-.08.04-.8.74-.12,1.17-.31,1.7-.15.4-.22.69-.01.96.25.33.79.23.79.23,0,0-.3-.28-.29-.65.01-.36.27-.59.7-.45.3.1.72.47.14,2.01-.61,1.62,2.02,2.22,2.53,1.76.43-.39-.27-.07,0-.55.46-.82.9-1.38,1.35-2.19.46-.83.42-2.12.14-2.89Z" fill="#2f384f" stroke-width="0"/>
              </g>
              <path d="m136.38,169.05c-.44-.04-1.07-.22-1.19-.34l.28-.61c.06-.12.19-.2.32-.18.31.04.91.1,1.45.02.81-.12,1.22-.38,1.41-.55.11-.1.16-.33.16-.33.23.02.18,1.1.18,1.1-.01.17-.69.57-1.07.74-.34.15-.95.2-1.55.15Z" fill="#f5f7ff" stroke-width="0"/>
              <path d="m136.33,169.5c-.41-.05-.86-.11-1.57-.34-.06-.02-.15.02-.26.06,0,0,.12-.19.21-.26.21-.15.49-.37.67-.5.11-.08.24-.11.37-.07.3.08.93.14,1.48.06.84-.12,1.27-.4,1.5-.61.23-.21.23-.55.23-.55.22,0,.39.78.39.78-.01.39-.26.82-1.01,1.19-.46.23-.99.37-2.01.25Z" fill="#37415e" stroke-width="0"/>
              <path d="m131.48,177.29l-1.22,2.57s-.39.86.14,1.01l1.11-.36s.05-1.06.04-1.45c0-.49-.07-1.77-.07-1.77Z" fill="#bfccd9" mix-blend-mode="multiply" stroke-width="0"/>
            </g>
          </g>
        </g>
      </g>
    </g>
  </g>
</svg>